<svg xmlns="http://www.w3.org/2000/svg" width="218" height="137" viewBox="0 0 218 137" fill="none">
    <path
        d="M98.1683 0.0551293C100.433 0.239089 102.686 0.963271 104.575 2.11806C105.151 2.47038 105.668 2.85399 106.416 3.47249C106.804 3.79347 107.243 4.1497 107.396 4.25929C108.003 4.70949 108.673 5.05788 109.202 5.20271C109.57 5.30055 110.26 5.31624 110.785 5.23793C111.298 5.15965 111.914 5.15181 112.207 5.21837C112.513 5.28883 113.073 5.57457 113.449 5.84859C113.833 6.12654 114.895 7.17561 115.362 7.7354C115.969 8.45958 116.251 8.91759 116.486 9.5439C116.811 10.4168 116.874 11.2311 116.756 13.1531C116.698 14.1474 116.694 14.4331 116.733 14.8794C116.866 16.5156 117.63 17.5295 119.393 18.4064C120.33 18.8761 120.933 19.0601 121.427 19.0288C121.788 19.0053 121.976 18.9152 122.642 18.4455C123.1 18.1245 123.923 17.6665 124.044 17.6665C124.072 17.6665 124.24 17.8701 124.417 18.1206C124.942 18.8487 125.518 19.4985 126.799 20.8099C127.465 21.4832 128.174 22.2191 128.382 22.4462C128.68 22.771 129.342 23.5539 129.522 23.7966C129.577 23.871 129.158 24.5639 128.617 25.2998C127.445 26.897 125.095 29.457 122.92 31.5122C121.447 32.9018 120.275 33.9118 119.613 34.3698L119.409 34.5107L118.986 34.3659C118.43 34.174 117.834 33.8844 117.54 33.6612C117.309 33.489 116.948 33.1171 116.036 32.1111C115.793 31.841 115.416 31.426 115.197 31.1912C114.151 30.0638 113.477 29.1752 113.308 28.7016C113.23 28.4706 113.23 28.1966 113.316 28.0361C113.352 27.9617 113.489 27.7894 113.614 27.6485C113.739 27.5076 113.9 27.2806 113.971 27.1397C114.084 26.9087 114.096 26.8461 114.112 26.4546C114.12 26.0906 114.108 25.9535 114.022 25.6051C113.814 24.7401 113.528 24.1998 113.026 23.7301C112.078 22.8337 110.734 22.3835 109.022 22.3874C108.195 22.3913 107.803 22.4462 107.157 22.6575C105.946 23.0529 105.151 23.6792 103.442 25.5738C102.968 26.1023 101.42 27.6955 100.006 29.1165C98.5915 30.5374 94.1835 35.047 90.2104 39.1376C87.543 41.8839 83.1062 46.4509 78.76 50.9246L72.6605 57.2031C61.9441 68.2303 60.9763 69.2363 59.3463 71.0488C58.8095 71.6477 58.1512 72.3484 57.8848 72.6068C56.678 73.7733 55.7572 74.1295 53.4807 74.3135C53.2025 74.333 50.7771 74.3683 48.0931 74.3878C45.4091 74.4074 42.0512 74.4426 40.6288 74.4622C28.9916 74.6423 15.3718 74.6462 9.04774 74.4661C4.98059 74.3487 2.03407 74.1413 0.964384 73.8985C0.560805 73.8046 0.423674 73.7146 0.353148 73.4993C0.263029 73.2174 0.145476 72.4893 0.071028 71.7456C-0.023012 70.806 -0.023012 68.9819 0.0671064 68.3282C0.204252 67.3691 0.46678 66.6332 0.79199 66.3005C1.03883 66.046 1.84599 65.6859 2.4259 65.5684C2.70801 65.5097 4.39287 65.5019 20.2539 65.4667C29.8889 65.4471 38.6227 65.4471 39.6689 65.4667C41.3811 65.4941 43.0973 65.5489 45.605 65.6585C49.3352 65.8229 50.8633 65.5684 52.4071 64.5272C52.9517 64.1632 53.4297 63.7326 54.4446 62.703C55.189 61.9436 80.7086 35.5833 95.0102 20.7981C97.8509 17.8583 100.343 15.2865 100.547 15.079L100.915 14.7071L100.852 14.21C100.739 13.2627 100.535 12.3819 100.261 11.6421C99.9198 10.7182 99.2772 9.60652 98.6111 8.78056C98.2428 8.32259 97.4826 7.51228 96.9497 7.00731L96.5031 6.58061L92.8473 4.34541C90.8373 3.11235 89.1955 2.09065 89.1916 2.07109C89.1916 2.05153 89.8577 1.73836 90.6688 1.37431C92.1969 0.693191 92.5848 0.552261 93.5448 0.348708C95.0572 0.0237877 96.5932 -0.0740516 98.1683 0.0551293Z"
        fill="#FEF000" />
    <path
        d="M154.944 35.4188C154.944 42.555 154.932 48.3955 154.92 48.3955C154.818 48.3955 153.369 47.4912 152.887 47.1272C152.221 46.6261 151.406 45.8627 150.144 44.5592C149.819 44.2265 148.972 43.4201 148.255 42.7703C146.888 41.5216 146.531 41.1575 146.155 40.633C145.857 40.218 145.748 40.0341 145.618 39.7092C145.611 39.6911 145.604 39.674 145.597 39.6577L145.576 39.6091C145.562 39.5781 145.55 39.5493 145.538 39.5202C145.382 39.1296 145.382 38.6768 145.383 32.1697L145.383 22.4422H154.944V35.4188Z"
        fill="#FEF000" />
    <path
        d="M130.607 30.3183C132.433 31.3438 135.517 34.3306 141.7 41.0557C145.951 45.6788 146.661 46.4069 152.338 51.9459C157.538 57.0191 159.458 58.9842 161.879 61.7244C163.435 63.4859 164.226 64.2688 164.955 64.7581C165.966 65.4393 166.718 65.541 169.598 65.3845C171.126 65.3023 171.4 65.2984 191.266 65.267C209.074 65.2357 211.586 65.224 213.138 65.1652C215.485 65.0752 215.845 65.1026 216.292 65.408C217.134 65.9834 217.267 67.3418 217.044 73.0804L216.993 74.3017L212.409 74.3252C209.885 74.337 197.433 74.3604 184.734 74.3722L161.648 74.3957L161.401 74.2587C159.74 73.3309 153.596 67.4239 143.816 57.3597C135.709 49.0179 124.225 36.7733 124.225 36.4758C124.225 36.421 124.648 35.8847 125.13 35.321C126.007 34.3032 127.649 32.6513 129.244 31.1873C129.616 30.8467 130.012 30.4826 130.122 30.3809C130.227 30.2791 130.333 30.1929 130.353 30.1929C130.372 30.1929 130.486 30.2478 130.607 30.3183Z"
        fill="#FEF000" />
    <path
        d="M106.886 40.0537C107.353 40.1593 107.588 40.3786 107.717 40.8209C107.776 41.0322 107.784 41.3493 107.799 43.8155C107.807 45.3343 107.803 47.1428 107.788 47.8357L107.76 49.1001H98.9128V44.5671C98.9128 42.0735 98.9245 40.0184 98.9402 40.0028C98.9911 39.9519 106.667 39.9989 106.886 40.0537Z"
        fill="#FEF000" />
    <path
        d="M118.688 40.0341C118.704 40.0497 118.723 42.097 118.731 44.5788L118.747 49.1001H109.845V39.9675L114.253 39.9871C116.678 39.9949 118.673 40.0184 118.688 40.0341Z"
        fill="#FEF000" />
    <path
        d="M106.467 51.9146C107.404 52.1534 107.733 52.5801 107.866 53.7192C107.937 54.3024 107.94 54.7722 107.886 57.0074C107.862 57.9429 107.835 59.2348 107.823 59.8728L107.799 61.0394H98.901L98.9245 59.4227C98.9402 58.538 98.952 56.4946 98.952 54.8897V51.9655L99.7082 51.9381C102.353 51.8441 103.787 51.8089 104.888 51.8207C106.017 51.8285 106.173 51.8402 106.467 51.9146Z"
        fill="#FEF000" />
    <path
        d="M114.723 52.0751C116.706 52.1221 118.398 52.1652 118.488 52.1769L118.649 52.1965L118.676 55.1597C118.688 56.7882 118.712 58.7807 118.723 59.5792L118.751 61.0394H109.845V60.597C109.845 60.3582 109.888 58.4245 109.943 56.3028C109.998 54.1811 110.041 52.3335 110.041 52.1965V51.9459L110.581 51.9733C110.875 51.9851 112.74 52.0321 114.723 52.0751Z"
        fill="#FEF000" />
    <path
        d="M165.543 84.3933C166.299 84.4716 166.734 84.546 167.439 84.7261C167.772 84.8122 168.05 84.8866 168.058 84.8944C168.066 84.8983 167.933 86.0022 167.768 87.341C167.51 89.4039 167.455 89.7719 167.404 89.7562C167.381 89.7505 167.261 89.7091 167.11 89.6566L166.934 89.5957C165.699 89.173 164.657 88.989 163.486 88.989C161.044 88.9929 159.332 89.8815 158.137 91.7683C157.839 92.2381 157.487 92.9387 157.263 93.5103C156.37 95.7689 156.19 98.9514 156.809 101.457C157.267 103.3 158.227 105.082 159.375 106.217C160.664 107.485 162.24 108.096 164.25 108.104C165.629 108.104 166.836 107.904 168.45 107.403C168.763 107.305 169.026 107.231 169.03 107.238C169.046 107.258 168.748 112.045 168.728 112.065C168.693 112.1 167.447 112.398 166.934 112.492C164.014 113.028 161.107 112.821 158.842 111.92C156.311 110.914 154.383 109.016 153.004 106.162C152.271 104.651 151.821 103.058 151.59 101.163C151.507 100.459 151.472 98.3917 151.531 97.6127C151.778 94.481 152.659 91.8779 154.293 89.4588C155.818 87.2001 157.64 85.736 159.893 84.961C161.573 84.3816 163.529 84.1859 165.543 84.3933Z"
        fill="#FEF000" />
    <path fill-rule="evenodd" clip-rule="evenodd"
        d="M57.9083 84.6048C59.4599 84.7378 60.6785 85.051 61.6346 85.5638C62.571 86.0687 63.3272 86.8282 63.7739 87.7168C64.6242 89.4 64.5968 92.1441 63.7112 93.9722C63.4291 94.5515 63.1627 94.9195 62.6494 95.4284C62.0969 95.9803 61.7639 96.2113 60.9724 96.5949L60.3964 96.8767L60.4042 97.0255L60.416 97.1782L60.847 97.2878C61.6267 97.4913 62.285 97.781 62.9237 98.2077C63.6446 98.6931 64.2715 99.2802 64.6359 99.8244C65.3256 100.838 65.686 102.259 65.686 103.935C65.6821 106.279 65.0356 108.088 63.7112 109.454C62.3203 110.887 60.3415 111.752 57.5478 112.139C56.5173 112.284 55.624 112.331 53.8529 112.331C52.1485 112.331 48.4379 112.257 48.1793 112.218L48.0461 112.198L48.0696 111.721C48.1009 111.102 48.1597 108.992 48.2185 106.232C48.2812 103.304 48.2812 92.5982 48.2185 89.9481C48.1597 87.5602 48.1049 85.6929 48.0696 85.1019L48.0461 84.683L49.9582 84.6791C51.0122 84.6752 52.5442 84.6517 53.3631 84.6283C55.2674 84.5656 57.3049 84.5538 57.9083 84.6048ZM52.9752 88.7659C53.6492 88.6445 54.0802 88.5936 54.8246 88.5584C56.5761 88.4762 57.5596 88.6641 58.3824 89.2473C59.2562 89.862 59.695 90.9971 59.6402 92.4729C59.6167 93.1267 59.5305 93.5338 59.3189 93.9878C58.7625 95.1935 57.6223 95.8629 55.6553 96.1369C55.1538 96.2074 53.5786 96.2465 53.0693 96.2034L52.697 96.1721L52.6735 93.6473C52.65 91.4003 52.6226 90.5235 52.5364 89.2199L52.509 88.8481L52.9752 88.7659ZM53.4415 99.9888C53.1398 100.008 52.8498 100.036 52.7989 100.048L52.7049 100.071L52.7284 102.408C52.7558 104.584 52.795 106.252 52.8577 107.626L52.8812 108.198L53.0732 108.241C53.6962 108.385 55.4986 108.401 56.5761 108.268C59.3698 107.931 60.5884 106.988 60.8862 104.941C61.0194 104.036 60.9136 103.148 60.5923 102.392C60.3886 101.919 59.8087 101.257 59.3267 100.952C58.5901 100.482 57.685 100.196 56.439 100.044C55.8473 99.9692 54.2056 99.9418 53.4415 99.9888Z"
        fill="#FEF000" />
    <path fill-rule="evenodd" clip-rule="evenodd"
        d="M140.995 84.6204C142.448 84.7574 143.428 85.004 144.427 85.4894C145.818 86.1627 146.719 87.1609 147.209 88.5623C147.515 89.4353 147.64 90.4021 147.605 91.553C147.538 93.6003 147.001 95.1152 145.865 96.4696C145.297 97.143 144.314 97.8985 143.432 98.3251L143.032 98.5169V98.6853C143.032 98.834 143.044 98.8614 143.142 98.8966C144.282 99.3272 145.336 100.521 146.218 102.373C147.033 104.099 148.244 107.45 149.497 111.458C149.607 111.815 149.705 112.128 149.713 112.151C149.729 112.19 149.192 112.202 147.127 112.202H144.525L144.482 112.034C144.459 111.944 144.255 111.223 144.028 110.433C142.774 106.017 141.869 103.559 141.163 102.651C140.736 102.107 140.125 101.68 139.447 101.457C138.887 101.277 138.538 101.241 137.178 101.241H135.928L135.952 104.498C135.976 107.575 136.03 110.715 136.077 111.74L136.097 112.202H131.191L131.215 111.642C131.454 106.295 131.485 93.1267 131.278 86.8164C131.258 86.1901 131.231 85.4581 131.215 85.1802L131.191 84.683L133.045 84.6791C134.067 84.6791 135.509 84.6557 136.254 84.6283C138.201 84.5538 140.25 84.5538 140.995 84.6204ZM135.94 88.805C136.168 88.7502 137.233 88.6093 137.566 88.5858C138.013 88.5545 139.118 88.5623 139.459 88.5975C141.034 88.762 142.053 89.3569 142.633 90.4374C142.911 90.9541 143.048 91.4826 143.115 92.2655C143.181 93.1227 143.056 94.1248 142.793 94.7825C142.237 96.176 141.065 96.9981 139.192 97.3112C138.628 97.4052 137.441 97.4561 136.646 97.4169L135.921 97.3856L135.913 96.0351C135.901 93.7608 135.831 90.9971 135.736 89.0673L135.725 88.8559L135.94 88.805Z"
        fill="#FEF000" />
    <path
        d="M83.8471 85.1019C83.8354 85.3367 83.7883 86.3702 83.7452 87.3997C83.7061 88.4331 83.663 89.2865 83.6512 89.2943C83.6434 89.3021 83.1536 89.2826 82.5658 89.2473C79.9641 89.0947 77.0098 88.989 75.2387 88.989H74.1024L74.1259 89.4666C74.2004 90.821 74.2317 91.8231 74.2552 93.7803L74.2788 95.9295L75.7912 95.9021C77.6524 95.8707 79.3686 95.8159 80.8888 95.7415L81.5731 95.7077C81.8734 95.6928 82.0791 95.6828 82.0957 95.6828C82.1309 95.6828 82.1427 96.1525 82.1427 97.8985V100.11L81.8802 100.091C81.1043 100.024 77.6524 99.9223 75.6384 99.9027L74.2866 99.8909L74.2983 101.868C74.3062 103.86 74.361 106.679 74.4081 107.497L74.4355 107.943L75.8696 107.92C78.7612 107.869 80.8301 107.79 83.5023 107.638C84.1331 107.599 84.6582 107.579 84.67 107.591C84.6935 107.614 84.5798 111.779 84.5485 112.034L84.5289 112.202H69.5847L69.6121 111.392C69.7414 107.227 69.8002 103.234 69.8002 97.9337C69.8002 92.653 69.7414 88.9028 69.6121 85.3759L69.5847 84.683H83.8745L83.8471 85.1019Z"
        fill="#FEF000" />
    <path
        d="M91.8364 85.004C91.9461 86.3115 92.5887 89.2395 94.1717 95.6437C95.7429 102.005 96.3659 104.784 96.5031 106.084L96.5305 106.33H96.8244L96.8479 106.045C96.9223 105.168 97.6041 102.185 98.6973 97.9337C99.8532 93.4398 100.441 91.052 100.774 89.5175C101.232 87.4036 101.538 85.5716 101.538 84.9296V84.683H106.514L106.491 84.9061C106.322 86.4641 105.158 90.4217 102.478 98.5208C99.8061 106.604 98.6463 110.519 98.5014 111.936L98.4739 112.202H93.6349L93.6075 111.901C93.486 110.589 92.3889 106.542 89.9596 98.4817C87.4519 90.1516 86.4332 86.4328 86.2647 84.9649L86.2333 84.683H91.809L91.8364 85.004Z"
        fill="#FEF000" />
    <path fill-rule="evenodd" clip-rule="evenodd"
        d="M121.067 84.9257C121.184 86.01 122.36 90.3317 124.746 98.4621C127.289 107.109 128.315 110.875 128.441 111.955L128.468 112.202H125.659C123.01 112.202 122.853 112.198 122.853 112.132C122.853 111.748 122.603 110.241 122.305 108.855C122.062 107.724 121.357 104.678 121.262 104.361C121.243 104.299 121.023 104.295 117.18 104.303L113.12 104.314L112.815 105.528C112 108.773 111.49 111.247 111.49 111.975V112.202H106.169L106.22 111.936C106.291 111.58 106.357 111.325 106.671 110.221C107.282 108.096 108.152 105.313 110.276 98.697C113.109 89.8698 114.12 86.4485 114.37 84.8278L114.394 84.683H121.039L121.067 84.9257ZM116.999 88.8794C116.847 89.7484 115.816 93.6551 114.511 98.2821C114.206 99.3546 113.959 100.239 113.959 100.247C113.959 100.255 115.397 100.263 117.156 100.263C120.181 100.263 120.35 100.259 120.33 100.192C120.259 99.9497 119.296 96.3913 118.919 94.9978C118.022 91.6391 117.438 89.2434 117.379 88.7032L117.356 88.4801H117.066L116.999 88.8794Z"
        fill="#FEF000" />
    <path
        d="M176.906 89.4392C181.059 89.4705 185.749 89.541 189.189 89.6153C190.083 89.6388 190.925 89.6544 191.062 89.6544H191.305V91.7213L190.004 91.7448C189.287 91.7565 188.304 91.7761 187.818 91.7879C186.635 91.8153 181.227 91.8779 176.251 91.9249C172.693 91.9601 172.168 91.9562 172.027 91.9053C171.933 91.874 171.82 91.8466 171.769 91.8466H171.675V89.4979H171.765C171.812 89.4979 171.929 89.4705 172.027 89.4392C172.168 89.3922 172.388 89.3844 173.144 89.4C173.661 89.4118 175.354 89.4274 176.906 89.4392Z"
        fill="#FEF000" />
    <path
        d="M43.9319 89.5997C44.1004 89.7171 44.1317 89.8776 44.1357 90.6684C44.1396 91.3455 44.1357 91.4199 44.0612 91.5687C44.0293 91.6301 44.0116 91.6785 43.981 91.7164C43.8673 91.8574 43.5754 91.8545 41.7176 91.8361H41.7163L41.1891 91.8309C39.515 91.8151 37.9222 91.8005 36.141 91.7843C34.8456 91.7724 33.4505 91.7597 31.8519 91.7448C30.4531 91.733 29.2346 91.7056 29.1484 91.6861C29.0622 91.6665 28.8506 91.6509 28.6782 91.6509C28.5058 91.6509 28.2158 91.6313 28.0317 91.6117C27.6438 91.5687 27.3695 91.5452 26.8562 91.5139C26.7688 91.5088 26.6331 91.4987 26.4776 91.4864C26.2705 91.47 26.0282 91.4495 25.8178 91.4317L25.6328 91.4176L25.4462 91.4031L25.4427 91.4029C25.2505 91.3878 25.1099 91.3768 25.0851 91.3768C25.0185 91.3768 25.0146 91.3259 25.0146 90.6723V89.9676H25.1478C25.1978 89.9676 25.3045 89.9552 25.4201 89.9376C25.4483 89.9333 25.477 89.9287 25.5056 89.9239L25.5419 89.9177C25.5583 89.9148 25.5746 89.9119 25.5906 89.9089C25.7591 89.8776 25.955 89.8502 26.0255 89.8502C26.0921 89.8502 26.1509 89.8345 26.1509 89.8189C26.1509 89.6701 27.5419 89.6349 34.6535 89.5918C37.2278 89.5762 39.3436 89.5605 39.3515 89.5527C39.3593 89.5449 40.3741 89.537 41.6045 89.537C43.5754 89.537 43.8535 89.5449 43.9319 89.5997Z"
        fill="#FEF000" />
    <path
        d="M181.314 105.074C181.314 105.175 181.419 105.183 183.469 105.234C185.678 105.289 188.28 105.375 189.895 105.45L190.496 105.476L190.505 105.476C190.933 105.495 191.239 105.508 191.258 105.508C191.293 105.508 191.305 105.759 191.305 106.624V107.74H171.675V105.238L171.784 105.226C171.867 105.219 171.894 105.191 171.902 105.105L171.914 104.999H176.616C181.223 104.999 181.314 104.999 181.314 105.074Z"
        fill="#FEF000" />
    <path
        d="M43.9515 105.375L44.1357 105.438V107.215L43.7909 107.552L39.8021 107.489C37.6039 107.454 35.4293 107.419 34.967 107.407C34.6285 107.398 34.0737 107.388 33.5686 107.378L33.047 107.368C29.7478 107.305 25.046 107.195 25.0264 107.176C25.0224 107.172 25.0146 106.792 25.0146 106.33L25.0068 105.489L26.5701 105.465C27.4283 105.45 30.7235 105.418 33.8894 105.395C35.4355 105.381 36.9153 105.369 38.0681 105.359L39.5508 105.347C39.9518 105.343 40.22 105.341 40.3154 105.34C42.9837 105.305 43.7673 105.313 43.9515 105.375Z"
        fill="#FEF000" />
    <path d="M188.523 121.871H27.5615V120.892H188.523V121.871Z" fill="#FEF000" />
    <path
        d="M55.3889 127.484C56.3998 127.68 57.1756 128.357 57.5792 129.399C57.5934 129.436 57.6068 129.47 57.6192 129.502C57.7002 129.71 57.7401 129.813 57.7066 129.877C57.6742 129.939 57.573 129.965 57.374 130.017C57.3418 130.025 57.3071 130.035 57.2696 130.044C57.011 130.115 56.7916 130.17 56.7799 130.17C56.7681 130.17 56.7289 130.076 56.6897 129.962C56.4272 129.156 55.9061 128.608 55.2439 128.451C54.9775 128.385 54.3936 128.393 54.1076 128.459C53.324 128.651 52.748 129.191 52.4619 130.005C52.2582 130.585 52.1916 131.035 52.1916 131.814C52.1916 133.188 52.458 134.069 53.0536 134.664C53.9039 135.517 55.2635 135.556 56.0824 134.75C56.435 134.401 56.6662 133.955 56.8308 133.309C56.8621 133.196 56.8935 133.145 56.9248 133.156C56.9523 133.168 57.1795 133.235 57.4303 133.305L57.8809 133.43L57.8064 133.704C57.4224 135.079 56.6231 135.94 55.4594 136.218C54.8756 136.359 53.9274 136.288 53.3161 136.061C52.6383 135.807 52.0349 135.2 51.6783 134.417C51.3061 133.603 51.1454 132.8 51.1493 131.775C51.1532 129.657 51.98 128.212 53.516 127.633C54.041 127.437 54.8207 127.375 55.3889 127.484Z"
        fill="#FEF000" />
    <path fill-rule="evenodd" clip-rule="evenodd"
        d="M109.676 127.5C110.221 127.672 110.648 128.107 110.824 128.678C110.922 128.984 110.926 129.485 110.84 129.782C110.691 130.295 110.26 130.831 109.719 131.18L109.457 131.352L109.743 131.747C109.843 131.891 110.012 132.13 110.18 132.368L110.432 132.726L110.844 133.305L110.934 133.102C110.981 132.992 111.067 132.73 111.122 132.526C111.173 132.319 111.224 132.143 111.236 132.135C111.251 132.119 112.102 132.315 112.164 132.35C112.227 132.385 111.929 133.313 111.686 133.842L111.522 134.198L111.71 134.464C111.812 134.609 112.078 134.906 112.298 135.126L112.693 135.521L112.439 135.85L112.345 135.973L112.259 136.088L112.257 136.089L112.195 136.172L112.148 136.233L112.133 136.253C112.083 136.326 112.078 136.323 111.927 136.221L111.921 136.218C111.745 136.096 111.279 135.615 111.059 135.329L110.922 135.149L110.581 135.478C110.221 135.818 109.896 136.026 109.508 136.163C109.186 136.276 108.473 136.308 108.109 136.222C106.749 135.901 105.938 134.288 106.444 132.91C106.636 132.393 107.2 131.767 107.78 131.422C107.944 131.324 108.081 131.234 108.081 131.219C108.081 131.203 107.987 131.058 107.87 130.894C107.404 130.252 107.255 129.872 107.251 129.348C107.247 128.835 107.388 128.451 107.721 128.064C108.074 127.645 108.536 127.437 109.128 127.433C109.335 127.43 109.527 127.453 109.676 127.5ZM108.199 129.218C108.199 128.854 108.43 128.49 108.748 128.353C109.218 128.15 109.755 128.428 109.911 128.952C110.076 129.528 109.825 130.072 109.183 130.538L108.987 130.675L108.795 130.432C108.34 129.857 108.199 129.567 108.199 129.218ZM108.246 132.166C107.842 132.468 107.643 132.695 107.47 133.051C107.306 133.383 107.259 133.72 107.337 134.049C107.47 134.609 107.874 135.145 108.262 135.274C108.477 135.345 108.81 135.364 109.026 135.317C109.382 135.239 109.884 134.894 110.139 134.55L110.311 134.319L109.469 133.133C109.002 132.483 108.61 131.947 108.595 131.939C108.575 131.931 108.418 132.033 108.246 132.166Z"
        fill="#FEF000" />
    <path
        d="M120.992 127.547C121.486 127.704 121.784 127.884 122.168 128.271C122.446 128.549 122.559 128.698 122.708 128.984C122.896 129.348 123.049 129.735 123.049 129.857C123.049 129.911 122.951 129.95 122.587 130.048C122.332 130.115 122.113 130.17 122.101 130.17C122.089 130.17 122.066 130.123 122.05 130.06C122.038 130.001 121.972 129.829 121.905 129.68C121.513 128.792 120.949 128.408 120.024 128.404C119.237 128.404 118.614 128.702 118.159 129.297C117.744 129.841 117.509 130.773 117.517 131.873C117.524 133.849 118.206 135.008 119.523 135.282C120.236 135.431 120.929 135.227 121.439 134.718C121.744 134.413 121.98 133.979 122.113 133.466C122.164 133.278 122.219 133.149 122.242 133.156C122.262 133.166 122.424 133.212 122.622 133.269L122.801 133.32C123.018 133.382 123.191 133.431 123.198 133.438C123.226 133.462 122.987 134.182 122.857 134.46C122.646 134.91 122.434 135.204 122.093 135.521C121.748 135.842 121.313 136.085 120.867 136.202C120.44 136.316 119.652 136.316 119.131 136.202C117.838 135.92 116.972 134.898 116.612 133.223C116.365 132.08 116.435 130.694 116.788 129.778C117.274 128.51 118.1 127.774 119.37 127.488C119.75 127.402 120.632 127.433 120.992 127.547Z"
        fill="#FEF000" />
    <path
        d="M46.2946 128.565H41.7455L41.7534 129.884L41.7651 131.207L43.8731 131.219L45.9772 131.227V132.205L43.8731 132.213L41.7651 132.225L41.7534 133.681L41.7455 135.141H46.4474V136.159H40.766V127.547L43.5205 127.555L46.2711 127.567L46.2946 128.565Z"
        fill="#FEF000" />
    <path
        d="M163.29 128.76H162.349V128.181C162.349 127.86 162.361 127.586 162.377 127.574C162.388 127.559 162.6 127.547 162.847 127.547H163.29V128.76Z"
        fill="#FEF000" />
    <path
        d="M142.68 128.858V129.935H143.62V130.757H142.68V132.761C142.68 133.971 142.695 134.824 142.719 134.91C142.742 134.985 142.805 135.09 142.86 135.145C142.95 135.227 142.993 135.239 143.287 135.239L143.612 135.235L143.659 135.552C143.679 135.695 143.704 135.86 143.718 135.957L143.726 136.006L143.745 136.147L143.483 136.198C142.876 136.312 142.276 136.171 142.014 135.854C141.975 135.807 141.943 135.768 141.916 135.725C141.766 135.492 141.764 135.165 141.747 133.039L141.735 130.761L141.054 130.737L141.03 129.935H141.739V128.381L142.182 128.083C142.421 127.919 142.633 127.786 142.652 127.786C142.668 127.782 142.68 128.267 142.68 128.858Z"
        fill="#FEF000" />
    <path
        d="M160.508 128.858V129.935H161.452L161.428 130.737L160.508 130.761V132.816C160.508 134.733 160.508 135.026 160.652 135.146C160.677 135.167 160.708 135.184 160.744 135.202L160.747 135.204C160.849 135.255 160.939 135.262 161.154 135.247L161.436 135.227L161.483 135.603C161.511 135.814 161.542 136.022 161.554 136.065C161.57 136.143 161.55 136.155 161.287 136.198C160.543 136.323 159.951 136.131 159.72 135.685C159.587 135.419 159.567 135.094 159.567 132.898V130.757H158.862V129.935H159.567V128.381L160.006 128.079C160.245 127.915 160.457 127.782 160.476 127.782C160.492 127.782 160.508 128.267 160.508 128.858Z"
        fill="#FEF000" />
    <path fill-rule="evenodd" clip-rule="evenodd"
        d="M127.383 129.919C128.225 130.197 128.817 130.894 129.064 131.888C129.205 132.452 129.197 133.626 129.048 134.256C128.848 135.098 128.39 135.697 127.692 136.026C127.304 136.21 127.011 136.276 126.576 136.276C125.843 136.276 125.365 136.085 124.871 135.591C124.389 135.114 124.135 134.542 124.033 133.712C123.915 132.765 124.033 131.892 124.37 131.187C124.667 130.565 125.24 130.072 125.87 129.892C126.282 129.778 126.999 129.79 127.383 129.919ZM125.522 131.168C125.753 130.925 125.917 130.812 126.156 130.733C126.411 130.651 126.94 130.683 127.183 130.796C127.434 130.917 127.79 131.27 127.924 131.536C128.135 131.947 128.194 132.276 128.198 133.008C128.198 133.783 128.139 134.108 127.927 134.542C127.771 134.859 127.481 135.153 127.175 135.302C127.014 135.38 126.928 135.396 126.595 135.396C126.243 135.396 126.18 135.384 125.976 135.282C125.545 135.075 125.216 134.628 125.059 134.045C124.957 133.677 124.957 132.413 125.059 132.049C125.169 131.653 125.298 131.403 125.522 131.168Z"
        fill="#FEF000" />
    <path
        d="M147.221 129.954C147.35 130.013 147.476 130.084 147.499 130.111C147.526 130.146 147.491 130.299 147.374 130.632L147.368 130.649C147.209 131.105 147.208 131.108 147.119 131.05C146.97 130.953 146.594 130.87 146.41 130.898C146.132 130.941 145.893 131.129 145.748 131.422C145.505 131.908 145.493 132.056 145.473 134.209L145.454 136.159H144.521V129.935H145.383V130.855L145.56 130.553C145.752 130.225 145.944 130.009 146.132 129.915C146.422 129.763 146.825 129.778 147.221 129.954Z"
        fill="#FEF000" />
    <path fill-rule="evenodd" clip-rule="evenodd"
        d="M167.78 129.919C168.603 130.197 169.179 130.859 169.449 131.833C169.524 132.111 169.535 132.244 169.535 133.008C169.539 133.916 169.508 134.162 169.32 134.671C168.955 135.658 168.05 136.276 166.973 136.276C166.224 136.276 165.758 136.085 165.249 135.576C164.88 135.204 164.685 134.863 164.543 134.347C164.269 133.333 164.363 131.974 164.763 131.164C165.065 130.557 165.641 130.068 166.267 129.892C166.683 129.778 167.4 129.79 167.78 129.919ZM166.522 130.749C165.966 130.949 165.562 131.473 165.425 132.186C165.343 132.601 165.343 133.493 165.425 133.908C165.547 134.527 165.88 135.024 166.346 135.278C166.546 135.388 166.589 135.396 166.973 135.396C167.325 135.396 167.412 135.384 167.572 135.302C168.042 135.071 168.387 134.589 168.524 133.967C168.618 133.556 168.618 132.53 168.528 132.127C168.391 131.512 168.05 131.043 167.58 130.812C167.278 130.667 166.828 130.639 166.522 130.749Z"
        fill="#FEF000" />
    <path fill-rule="evenodd" clip-rule="evenodd"
        d="M61.9049 129.876C62.9119 130.138 63.5937 130.964 63.7896 132.166C63.8954 132.824 63.8405 133.896 63.6642 134.476C63.3351 135.576 62.3908 136.276 61.2388 136.276C60.4591 136.276 59.84 135.995 59.3698 135.427C58.9388 134.91 58.7194 134.221 58.6841 133.282C58.6528 132.428 58.7507 131.794 59.0054 131.246C59.3228 130.557 59.8478 130.103 60.5727 129.892C60.8823 129.802 61.5836 129.794 61.9049 129.876ZM60.0633 131.309C60.2553 131.05 60.5178 130.851 60.8078 130.745C61.1056 130.639 61.5679 130.671 61.8696 130.816C62.1596 130.956 62.4652 131.27 62.6219 131.587C62.8375 132.033 62.9354 132.773 62.8688 133.458C62.7943 134.221 62.6337 134.632 62.2811 134.985C61.9872 135.278 61.7521 135.384 61.3485 135.407C60.9567 135.427 60.6863 135.352 60.4121 135.145C59.8753 134.738 59.648 134.127 59.6441 133.066C59.6402 132.237 59.7655 131.712 60.0633 131.309Z"
        fill="#FEF000" />
    <path
        d="M68.2486 129.954C68.5464 130.095 68.7971 130.346 68.9382 130.643L69.0479 130.878L69.1772 130.694C69.3809 130.397 69.6787 130.138 69.9922 129.982C70.2861 129.837 70.29 129.837 70.7758 129.837C71.199 129.837 71.3009 129.853 71.4929 129.927C71.7985 130.048 72.0806 130.315 72.2295 130.612C72.4568 131.082 72.4646 131.191 72.4646 133.795V136.159H71.5634V134.268C71.5595 131.622 71.5242 131.274 71.2264 130.976C70.8581 130.608 70.1332 130.639 69.6944 131.043C69.5063 131.215 69.3143 131.571 69.2477 131.873C69.2203 131.998 69.1968 132.824 69.185 134.112L69.1654 136.159H68.2799L68.2642 133.916C68.2447 131.508 68.2368 131.415 68.0291 131.078C67.845 130.78 67.3944 130.643 66.9516 130.753C66.6969 130.816 66.3796 131.039 66.2346 131.258C65.9407 131.704 65.8819 132.24 65.8819 134.581V136.159H64.9808V129.935H65.8036V130.804L65.9721 130.573C66.1523 130.33 66.3443 130.162 66.6068 130.017C66.9085 129.853 67.0888 129.817 67.5668 129.829C67.9665 129.841 68.0448 129.857 68.2486 129.954Z"
        fill="#FEF000" />
    <path
        d="M77.1783 129.966C77.4721 130.111 77.7111 130.354 77.8444 130.647C77.8914 130.749 77.9423 130.835 77.9541 130.835C77.9658 130.835 78.0285 130.765 78.0873 130.675C78.2675 130.42 78.6554 130.087 78.9297 129.958C79.1491 129.857 79.2393 129.837 79.588 129.825C80.0112 129.81 80.2384 129.845 80.5088 129.982C80.7439 130.099 81.0025 130.362 81.1279 130.608C81.3629 131.074 81.3669 131.137 81.3865 133.759L81.4061 136.159H80.4657L80.45 133.877C80.4304 131.403 80.4265 131.336 80.211 131.058C80.1522 130.984 80.0151 130.874 79.9014 130.82C79.3568 130.549 78.6045 130.827 78.3185 131.407C78.1186 131.814 78.1108 131.943 78.1069 134.131V136.159H77.1665V134.072C77.1665 132.929 77.1469 131.857 77.1273 131.696C77.0764 131.305 76.9275 131.007 76.7041 130.855C76.5435 130.745 76.5082 130.737 76.1752 130.737C75.8617 130.737 75.7873 130.753 75.6188 130.843C75.3876 130.964 75.1094 131.246 75.0232 131.454C74.8433 131.879 74.8391 131.89 74.8273 134.072L74.8116 136.159H73.8752V129.935H74.698V130.804L74.8743 130.569C75.0546 130.33 75.2975 130.127 75.56 129.994C75.8461 129.845 76.0028 129.817 76.4651 129.829C76.8883 129.841 76.9392 129.849 77.1783 129.966Z"
        fill="#FEF000" />
    <path fill-rule="evenodd" clip-rule="evenodd"
        d="M85.8454 129.927C86.2921 130.091 86.7035 130.42 86.9817 130.831C87.3304 131.36 87.4989 131.959 87.5381 132.8L87.5616 133.301H83.4357V133.454C83.4357 133.704 83.5572 134.206 83.6747 134.46C83.8079 134.738 84.0391 135.016 84.2742 135.176C84.764 135.509 85.4967 135.493 85.9512 135.137C86.1432 134.985 86.3822 134.624 86.4723 134.354C86.5233 134.209 86.5585 134.162 86.6134 134.162C86.7701 134.162 87.5107 134.292 87.5107 134.319C87.5107 134.366 87.3696 134.758 87.2913 134.926C86.97 135.623 86.3901 136.085 85.6378 136.237C85.2734 136.312 84.5446 136.272 84.2233 136.159C83.3495 135.85 82.7657 135.133 82.5541 134.104C82.464 133.658 82.4365 132.965 82.4914 132.483C82.656 131.097 83.2986 130.201 84.3565 129.888C84.6974 129.786 85.5163 129.81 85.8454 129.927ZM84.8384 130.683C84.3761 130.733 83.8863 131.113 83.6786 131.579C83.5885 131.782 83.4788 132.221 83.4749 132.37C83.4749 132.436 83.5728 132.44 85.0187 132.44H86.5625L86.5429 132.272C86.4136 131.184 85.7671 130.581 84.8384 130.683Z"
        fill="#FEF000" />
    <path
        d="M91.378 129.95C91.5151 130.013 91.6405 130.084 91.664 130.111C91.6915 130.146 91.6562 130.299 91.5386 130.632L91.5326 130.649C91.3741 131.105 91.373 131.108 91.284 131.05C91.1351 130.953 90.7589 130.87 90.5748 130.898C90.2966 130.941 90.0575 131.129 89.9126 131.422C89.6696 131.908 89.6579 132.053 89.6383 134.209L89.6187 136.159H88.6862V129.935H89.5482V130.855L89.7245 130.553C90.0615 129.974 90.3161 129.81 90.8216 129.829C91.0645 129.837 91.1899 129.864 91.378 129.95Z"
        fill="#FEF000" />
    <path
        d="M95.1317 129.872C95.8957 130.076 96.4443 130.659 96.6598 131.497C96.6951 131.634 96.7186 131.747 96.7107 131.755C96.7072 131.757 96.6644 131.767 96.5962 131.78L96.5583 131.788C96.5255 131.794 96.4885 131.801 96.4484 131.809L96.4168 131.815L96.3569 131.825C96.3257 131.83 96.2933 131.836 96.2601 131.841L95.8213 131.92L95.7429 131.657C95.5979 131.184 95.2688 130.812 94.9083 130.714C94.4381 130.589 93.9523 130.714 93.584 131.058C93.1647 131.442 93.0041 131.912 92.9688 132.847C92.9218 134.01 93.149 134.746 93.6819 135.149C93.9366 135.341 94.1639 135.415 94.4891 135.415C95.1826 135.415 95.6724 134.969 95.837 134.182C95.8644 134.037 95.8996 133.912 95.9075 133.904C95.9232 133.889 96.7656 134.006 96.7891 134.029C96.8204 134.053 96.7068 134.507 96.6128 134.769C96.3267 135.54 95.7194 136.092 94.9985 136.241C94.6772 136.308 94.0111 136.269 93.7094 136.163C92.4908 135.744 91.8874 134.472 92.0245 132.605C92.1342 131.109 92.7768 130.174 93.8974 129.88C94.1717 129.806 94.877 129.802 95.1317 129.872Z"
        fill="#FEF000" />
    <path fill-rule="evenodd" clip-rule="evenodd"
        d="M100.696 129.931C101.417 130.189 102.024 130.902 102.239 131.747C102.333 132.1 102.4 132.648 102.4 133.016V133.301H98.2859V133.458C98.2859 133.716 98.3995 134.194 98.5249 134.46C98.8305 135.106 99.3634 135.443 100.026 135.407C100.609 135.372 100.97 135.106 101.248 134.499C101.354 134.268 101.42 134.162 101.467 134.162C101.542 134.162 102.333 134.284 102.349 134.296C102.38 134.323 102.216 134.773 102.079 135.032C101.746 135.677 101.279 136.041 100.566 136.218C100.143 136.319 99.4339 136.288 99.0342 136.147C98.1918 135.854 97.6198 135.133 97.4043 134.104C97.2671 133.454 97.2867 132.471 97.4513 131.833C97.6825 130.917 98.278 130.213 99.0499 129.943C99.3947 129.821 99.3986 129.821 99.9511 129.833C100.351 129.845 100.511 129.864 100.696 129.931ZM99.2497 130.812C99.3673 130.753 99.5632 130.694 99.6886 130.683C100.178 130.628 100.558 130.757 100.884 131.078C101.162 131.356 101.283 131.653 101.397 132.311L101.42 132.44H98.325V132.35C98.325 132.201 98.47 131.677 98.5562 131.508C98.6816 131.258 99.0147 130.929 99.2497 130.812Z"
        fill="#FEF000" />
    <path
        d="M133.452 129.872C133.946 130.001 134.33 130.295 134.526 130.698C134.761 131.176 134.769 131.25 134.792 133.818L134.816 136.159H133.871L133.852 133.975C133.832 131.708 133.824 131.555 133.66 131.246C133.578 131.097 133.374 130.902 133.197 130.812C132.974 130.698 132.484 130.69 132.206 130.796C131.885 130.917 131.595 131.164 131.466 131.426C131.258 131.845 131.238 132.076 131.238 134.209V136.159H130.298V129.935H131.121L131.125 130.373C131.125 130.8 131.129 130.812 131.191 130.718C131.328 130.514 131.669 130.185 131.873 130.064C131.987 129.994 132.179 129.911 132.296 129.88C132.571 129.806 133.197 129.802 133.452 129.872Z"
        fill="#FEF000" />
    <path
        d="M138.75 129.872C139.087 129.943 139.533 130.166 139.729 130.358C139.819 130.448 139.941 130.608 139.996 130.722C140.097 130.921 140.266 131.497 140.231 131.532C140.203 131.559 139.373 131.689 139.341 131.669C139.322 131.661 139.31 131.618 139.31 131.579C139.31 131.454 139.153 131.133 139.024 131C138.953 130.925 138.832 130.831 138.75 130.792C138.44 130.632 137.703 130.636 137.366 130.796C137.006 130.972 136.841 131.371 136.99 131.708C137.104 131.966 137.304 132.092 137.911 132.284C138.859 132.581 139.365 132.757 139.612 132.879C139.909 133.023 140.18 133.301 140.321 133.607C140.419 133.81 140.427 133.869 140.427 134.323V134.816L140.262 135.149C139.988 135.701 139.514 136.065 138.875 136.218C138.291 136.355 137.359 136.257 136.908 136.01C136.457 135.767 136.066 135.196 135.921 134.577C135.889 134.429 135.866 134.303 135.87 134.3C135.889 134.288 136.72 134.151 136.751 134.155C136.767 134.155 136.81 134.276 136.849 134.417C136.971 134.851 137.186 135.122 137.547 135.294C137.743 135.388 137.805 135.396 138.252 135.396C138.707 135.396 138.757 135.388 138.938 135.29C139.4 135.047 139.612 134.574 139.447 134.174C139.412 134.092 139.357 133.998 139.322 133.959C139.22 133.845 138.871 133.704 138.06 133.454C137.155 133.176 136.716 132.98 136.497 132.761C135.85 132.115 135.866 131.023 136.524 130.365C136.755 130.134 136.99 130.005 137.37 129.892C137.66 129.806 138.397 129.798 138.75 129.872Z"
        fill="#FEF000" />
    <path
        d="M156.911 129.876C157.624 130.064 158.129 130.545 158.364 131.266L158.381 131.315L158.406 131.391C158.472 131.585 158.504 131.678 158.471 131.73C158.441 131.777 158.359 131.79 158.202 131.815C158.167 131.82 158.128 131.826 158.086 131.833C157.967 131.853 157.856 131.871 157.773 131.885L157.764 131.886L157.762 131.887C157.69 131.898 157.643 131.906 157.636 131.908C157.616 131.908 157.573 131.814 157.534 131.696C157.397 131.27 157.224 131.015 156.95 130.843C156.848 130.78 156.715 130.714 156.648 130.698C156.444 130.651 156.037 130.675 155.849 130.741C155.089 131.027 154.748 131.728 154.748 133.027C154.748 134.096 154.924 134.671 155.375 135.075C155.884 135.533 156.68 135.537 157.154 135.079C157.369 134.875 157.545 134.527 157.612 134.182C157.64 134.053 157.671 133.935 157.687 133.916C157.706 133.892 158.541 133.994 158.58 134.025C158.603 134.045 158.47 134.57 158.388 134.789C158.118 135.513 157.557 136.038 156.864 136.218C156.668 136.269 156.503 136.28 156.158 136.265C155.653 136.245 155.339 136.151 154.987 135.924C154.713 135.752 154.352 135.349 154.188 135.032C153.604 133.924 153.651 131.939 154.282 130.894C154.56 130.428 155.147 130.009 155.704 129.872C155.99 129.802 156.629 129.806 156.911 129.876Z"
        fill="#FEF000" />
    <path
        d="M174.033 129.931C174.66 130.174 175.009 130.624 175.123 131.324C175.146 131.458 175.162 132.554 175.162 133.857V136.159H174.269L174.249 133.975C174.229 131.712 174.218 131.555 174.057 131.246C173.975 131.097 173.771 130.902 173.595 130.812C173.371 130.698 172.881 130.69 172.603 130.796C172.286 130.913 171.992 131.164 171.859 131.426C171.655 131.829 171.635 132.06 171.635 134.206V136.159H170.695V129.935H171.514L171.538 130.812L171.643 130.647C171.886 130.283 172.282 129.994 172.697 129.876C173.019 129.786 173.744 129.817 174.033 129.931Z"
        fill="#FEF000" />
    <path
        d="M149.027 131.998C149.027 133.137 149.047 134.194 149.066 134.35C149.156 135.035 149.607 135.415 150.273 135.368C150.747 135.333 151.225 135.016 151.417 134.601C151.605 134.206 151.621 134.029 151.641 131.92L151.66 129.935H152.554V136.159H151.731V135.697C151.727 135.286 151.723 135.247 151.672 135.317C151.19 135.975 150.763 136.233 150.105 136.269C149.121 136.319 148.443 135.861 148.181 134.965C148.118 134.754 148.11 134.48 148.099 132.331L148.083 129.935H149.027V131.998Z"
        fill="#FEF000" />
    <path d="M163.29 136.159H162.349V129.935H163.29V136.159Z" fill="#FEF000" />
    <path
        d="M50.2912 133.575H47.3486V133.074C47.3486 132.796 47.3604 132.558 47.3761 132.546C47.3917 132.53 48.0461 132.522 48.8336 132.526L50.2677 132.538L50.2912 133.575Z"
        fill="#FEF000" />
</svg>