<svg xmlns="http://www.w3.org/2000/svg" version="1.1" xmlns:xlink="http://www.w3.org/1999/xlink"
    xmlns:svgjs="http://svgjs.dev/svgjs" viewBox="0 0 2400 800" opacity="0.46">
    <defs>
        <linearGradient x1="50%" y1="0%" x2="50%" y2="100%" id="sssurf-grad">
            <stop stop-color="hsla(57, 100%, 50%, 1.00)" stop-opacity="1" offset="0%"></stop>
            <stop stop-color="hsla(208, 74%, 93%, 0.00)" stop-opacity="1" offset="100%"></stop>
        </linearGradient>
    </defs>
    <g fill="url(#sssurf-grad)" transform="matrix(1,0,0,1,5.82373046875,130.68109703063965)">
        <path
            d="M-10,10C75.41666666666666,14.791666666666668,231.25,40.5,400,33C568.75,25.5,633.3333333333333,-28.083333333333332,800,-26C966.6666666666667,-23.916666666666668,1033.3333333333333,41.75,1200,43C1366.6666666666667,44.25,1433.3333333333333,-19.791666666666668,1600,-20C1766.6666666666667,-20.208333333333332,1833.3333333333333,44.083333333333336,2000,42C2166.6666666666665,39.916666666666664,2264.5833333333335,-104.58333333333333,2400,-30C2535.4166666666665,44.58333333333333,3254.1666666666665,206.25,2650,400C2045.8333333333335,593.75,156.25,795.8333333333334,-500,900"
            transform="matrix(1,0,0,1,0,70)" opacity="0.05"></path>
        <path
            d="M-10,10C75.41666666666666,14.791666666666668,231.25,40.5,400,33C568.75,25.5,633.3333333333333,-28.083333333333332,800,-26C966.6666666666667,-23.916666666666668,1033.3333333333333,41.75,1200,43C1366.6666666666667,44.25,1433.3333333333333,-19.791666666666668,1600,-20C1766.6666666666667,-20.208333333333332,1833.3333333333333,44.083333333333336,2000,42C2166.6666666666665,39.916666666666664,2264.5833333333335,-104.58333333333333,2400,-30C2535.4166666666665,44.58333333333333,3254.1666666666665,206.25,2650,400C2045.8333333333335,593.75,156.25,795.8333333333334,-500,900"
            transform="matrix(1,0,0,1,0,140)" opacity="0.24"></path>
        <path
            d="M-10,10C75.41666666666666,14.791666666666668,231.25,40.5,400,33C568.75,25.5,633.3333333333333,-28.083333333333332,800,-26C966.6666666666667,-23.916666666666668,1033.3333333333333,41.75,1200,43C1366.6666666666667,44.25,1433.3333333333333,-19.791666666666668,1600,-20C1766.6666666666667,-20.208333333333332,1833.3333333333333,44.083333333333336,2000,42C2166.6666666666665,39.916666666666664,2264.5833333333335,-104.58333333333333,2400,-30C2535.4166666666665,44.58333333333333,3254.1666666666665,206.25,2650,400C2045.8333333333335,593.75,156.25,795.8333333333334,-500,900"
            transform="matrix(1,0,0,1,0,210)" opacity="0.43"></path>
        <path
            d="M-10,10C75.41666666666666,14.791666666666668,231.25,40.5,400,33C568.75,25.5,633.3333333333333,-28.083333333333332,800,-26C966.6666666666667,-23.916666666666668,1033.3333333333333,41.75,1200,43C1366.6666666666667,44.25,1433.3333333333333,-19.791666666666668,1600,-20C1766.6666666666667,-20.208333333333332,1833.3333333333333,44.083333333333336,2000,42C2166.6666666666665,39.916666666666664,2264.5833333333335,-104.58333333333333,2400,-30C2535.4166666666665,44.58333333333333,3254.1666666666665,206.25,2650,400C2045.8333333333335,593.75,156.25,795.8333333333334,-500,900"
            transform="matrix(1,0,0,1,0,280)" opacity="0.62"></path>
        <path
            d="M-10,10C75.41666666666666,14.791666666666668,231.25,40.5,400,33C568.75,25.5,633.3333333333333,-28.083333333333332,800,-26C966.6666666666667,-23.916666666666668,1033.3333333333333,41.75,1200,43C1366.6666666666667,44.25,1433.3333333333333,-19.791666666666668,1600,-20C1766.6666666666667,-20.208333333333332,1833.3333333333333,44.083333333333336,2000,42C2166.6666666666665,39.916666666666664,2264.5833333333335,-104.58333333333333,2400,-30C2535.4166666666665,44.58333333333333,3254.1666666666665,206.25,2650,400C2045.8333333333335,593.75,156.25,795.8333333333334,-500,900"
            transform="matrix(1,0,0,1,0,350)" opacity="0.81"></path>
        <path
            d="M-10,10C75.41666666666666,14.791666666666668,231.25,40.5,400,33C568.75,25.5,633.3333333333333,-28.083333333333332,800,-26C966.6666666666667,-23.916666666666668,1033.3333333333333,41.75,1200,43C1366.6666666666667,44.25,1433.3333333333333,-19.791666666666668,1600,-20C1766.6666666666667,-20.208333333333332,1833.3333333333333,44.083333333333336,2000,42C2166.6666666666665,39.916666666666664,2264.5833333333335,-104.58333333333333,2400,-30C2535.4166666666665,44.58333333333333,3254.1666666666665,206.25,2650,400C2045.8333333333335,593.75,156.25,795.8333333333334,-500,900"
            transform="matrix(1,0,0,1,0,420)" opacity="1.00"></path>
    </g>
</svg>